<svg xmlns="http://www.w3.org/2000/svg" viewBox="0 0 200 200"><defs><style>.cls-1{fill:#1d1808;}.cls-2,.cls-3{fill:none;stroke-linecap:round;stroke-linejoin:round;stroke-width:2px;}.cls-2{stroke:#dbdbdb;}.cls-3{stroke:#eec964;}</style></defs><g id="Bill"><circle class="cls-1" cx="120" cy="120" r="44"/><path class="cls-2" d="M144,36v85.83L142,120l-11,10-11-10-11,10L98,120,87,130,76,120v34a10,10,0,0,1-20,0V36L67,46,78,36,89,46l11-10,11,10,11-10,11,10Z"/><path class="cls-2" d="M164,120v34a10,10,0,0,1-10,10H66a10,10,0,0,0,10-10V120l11,10,11-10,11,10,11-10,11,10,11-10,2,1.83,9,8.17Z"/><path class="cls-3" d="M120,82h9a5,5,0,0,0,5-5h0a5,5,0,0,0-5-5h-4a5,5,0,0,1-5-5h0a5,5,0,0,1,5-5h9"/><line class="cls-3" x1="127" y1="62" x2="127" y2="56"/><line class="cls-3" x1="127" y1="88" x2="127" y2="82"/><line class="cls-2" x1="66" y1="62" x2="100" y2="62"/><line class="cls-2" x1="66" y1="72" x2="100" y2="72"/><line class="cls-2" x1="66" y1="82" x2="100" y2="82"/><line class="cls-2" x1="66" y1="96" x2="134" y2="96"/><line class="cls-2" x1="66" y1="106" x2="134" y2="106"/></g></svg>