<svg xmlns="http://www.w3.org/2000/svg" viewBox="0 0 200 200"><defs><style>.cls-1{fill:#1d1808;}.cls-2,.cls-3{fill:none;stroke-linecap:round;stroke-linejoin:round;stroke-width:2px;}.cls-2{stroke:#eec964;}.cls-3{stroke:#dbdbdb;}</style></defs><g id="Delivery_Location" data-name="Delivery Location"><circle class="cls-1" cx="120" cy="90" r="44"/><circle class="cls-2" cx="100" cy="80" r="34"/><path class="cls-3" d="M131.11,111.11,111,131.26l-11,11-11-11L68.89,111.11a44,44,0,1,1,62.22,0Z"/><path class="cls-3" d="M129,147c0,9.39-13,17-29,17s-29-7.61-29-17c0-7.12,7.45-13.21,18-15.74l11,11,11-11C121.55,133.79,129,139.88,129,147Z"/><path class="cls-3" d="M120,87.37a6.47,6.47,0,0,1-3,3,7,7,0,0,1-3,.67H86a7,7,0,0,1-3-.67,6.47,6.47,0,0,1-3-3,7.22,7.22,0,0,1-.48-5.2L83,74h34l3.48,8.17A7.22,7.22,0,0,1,120,87.37Z"/><path class="cls-3" d="M117,74H83l1.72-10.33a2,2,0,0,1,2-1.67h26.62a2,2,0,0,1,2,1.67Z"/><circle class="cls-2" cx="86" cy="84" r="3"/><circle class="cls-2" cx="114" cy="84" r="3"/><path class="cls-3" d="M90,91v3a5,5,0,0,1-10,0V87.37a6.47,6.47,0,0,0,3,3A7,7,0,0,0,86,91Z"/><path class="cls-3" d="M120,87.37V94a5,5,0,0,1-10,0V91h4a7,7,0,0,0,3-.67A6.47,6.47,0,0,0,120,87.37Z"/><path class="cls-3" d="M75,69h5a0,0,0,0,1,0,0v4a0,0,0,0,1,0,0H77a2,2,0,0,1-2-2V69A0,0,0,0,1,75,69Z"/><line class="cls-3" x1="80" y1="73" x2="83" y2="74"/><path class="cls-3" d="M122,69h3a0,0,0,0,1,0,0v4a0,0,0,0,1,0,0h-5a0,0,0,0,1,0,0V71A2,2,0,0,1,122,69Z" transform="translate(245 142) rotate(-180)"/><line class="cls-3" x1="120" y1="73" x2="117" y2="74"/></g></svg>