<svg xmlns="http://www.w3.org/2000/svg" viewBox="0 0 200 200"><defs><style>.cls-1{fill:#1d1808;}.cls-2,.cls-3{fill:none;stroke-linecap:round;stroke-linejoin:round;stroke-width:2px;}.cls-2{stroke:#dbdbdb;}.cls-3{stroke:#eec964;}</style></defs><g id="Gesture-1"><circle class="cls-1" cx="120" cy="100" r="44"/><line class="cls-2" x1="94.89" y1="94" x2="94.89" y2="87.5"/><line class="cls-2" x1="107.89" y1="96" x2="107.89" y2="87.5"/><polyline class="cls-2" points="94.89 87.5 94.89 94 94.89 96"/><line class="cls-2" x1="120.89" y1="96" x2="120.89" y2="87.5"/><line class="cls-2" x1="107.89" y1="96" x2="107.89" y2="87.5"/><line class="cls-2" x1="120.89" y1="96" x2="120.89" y2="87.5"/><path class="cls-2" d="M133.89,87.5v35.73a4,4,0,0,1-.28,1.49L129.89,134h-44l-3.32-5a4,4,0,0,1-.68-2.22v-1.38a4,4,0,0,0-1.17-2.83l-18.3-18.3a7.78,7.78,0,0,1-.13-10.94,7.5,7.5,0,0,1,10.51.1l9.09,9.09V60.78A6.72,6.72,0,0,1,88.59,54a6.49,6.49,0,0,1,6.3,6.5v27a6.5,6.5,0,1,1,13,0,6.5,6.5,0,1,1,13,0,6.5,6.5,0,1,1,13,0Z"/><rect class="cls-2" x="85.89" y="134" width="44" height="10"/><path class="cls-3" d="M75.89,164V148a4,4,0,0,1,4-4h56a4,4,0,0,1,4,4v16"/><line class="cls-3" x1="88.39" y1="46" x2="88.39" y2="36"/><line class="cls-3" x1="78.14" y1="50.25" x2="71.07" y2="43.18"/><line class="cls-3" x1="73.89" y1="60.5" x2="63.89" y2="60.5"/><line class="cls-3" x1="102.89" y1="60.5" x2="112.89" y2="60.5"/><line class="cls-3" x1="98.65" y1="50.25" x2="105.72" y2="43.18"/></g></svg>