<svg xmlns="http://www.w3.org/2000/svg" viewBox="0 0 200 200"><defs><style>.cls-1{fill:#1d1808;}.cls-2,.cls-3{fill:none;stroke-linecap:round;stroke-linejoin:round;stroke-width:2px;}.cls-2{stroke:#eec964;}.cls-3{stroke:#dbdbdb;}</style></defs><g id="Payment"><circle class="cls-1" cx="100" cy="120" r="44"/><line class="cls-2" x1="130" y1="110" x2="100.19" y2="110"/><line class="cls-2" x1="130" y1="120" x2="101.18" y2="120"/><line class="cls-2" x1="130" y1="130" x2="91.73" y2="130"/><path class="cls-3" d="M142,40V150a4,4,0,0,1-4,4H84v-1.83A14.93,14.93,0,0,0,89,141v-8.27L99.63,122.1A9,9,0,0,0,86.9,109.37l-2.9,2.9L78.27,118,74,122.27V40a4,4,0,0,1,4-4h60A4,4,0,0,1,142,40Z"/><path class="cls-3" d="M122.12,42H93.88a4,4,0,0,1-3.79-2.74L89,36h38l-1.09,3.26A4,4,0,0,1,122.12,42Z"/><circle class="cls-3" cx="108" cy="82" r="21"/><polyline class="cls-2" points="100 82 105 87 116 77"/><path class="cls-3" d="M58,164V102A12,12,0,0,1,70,90h4v32.27L78.27,118,84,112.27l2.9-2.9A9,9,0,0,1,99.63,122.1L89,132.73V141a14.93,14.93,0,0,1-5,11.17V164"/><line class="cls-2" x1="64" y1="164" x2="64" y2="134"/></g></svg>